<?xml version="1.0" encoding="UTF-8"?>
<!DOCTYPE svg PUBLIC "-//W3C//DTD SVG 1.1//EN" "http://www.w3.org/Graphics/SVG/1.1/DTD/svg11.dtd">
<!-- Creator: CorelDRAW -->
<svg xmlns="http://www.w3.org/2000/svg" xml:space="preserve" width="1.70666in" height="1.70666in" version="1.1" style="shape-rendering:geometricPrecision; text-rendering:geometricPrecision; image-rendering:optimizeQuality; fill-rule:evenodd; clip-rule:evenodd"
viewBox="0 0 1707 1707"
 xmlns:xlink="http://www.w3.org/1999/xlink">
 <defs>
  <style type="text/css">
   <![CDATA[
    .fil0 {fill:black}
   ]]>
  </style>
 </defs>
 <g id="Layer_x0020_1">
  <metadata id="CorelCorpID_0Corel-Layer"/>
  <path class="fil0" d="M1119 843l-581 0c-7,0 -14,-3 -19,-9l-192 -209c0,0 -1,0 -1,0l-263 0 56 186c33,-2 162,0 204,0 35,0 35,53 0,53l-188 0 143 471c54,0 118,-7 191,-26 19,-8 168,-62 395,-1 2,1 3,1 4,2 1,0 142,57 361,-1 15,-6 101,-37 238,-27l105 -265 -301 0c-34,0 -34,-53 0,-53l322 0 48 -121 -522 0zm-34 336c-64,0 -117,-53 -117,-117 0,-65 53,-118 117,-118 65,0 118,53 118,118 0,64 -53,117 -118,117zm0 -182c-85,0 -85,129 0,129 85,0 85,-129 0,-129zm-288 182c-64,0 -117,-53 -117,-117 0,-65 53,-118 117,-118 65,0 118,53 118,118 0,64 -53,117 -118,117zm0 -182c-85,0 -85,129 0,129 85,0 85,-129 0,-129zm-288 182c-65,0 -117,-53 -117,-117 0,-65 52,-118 117,-118 65,0 118,53 118,118 0,64 -53,117 -118,117zm0 -182c-85,0 -85,129 0,129 85,0 85,-129 0,-129zm1076 -275l-347 0 0 69 347 0 0 -69zm-347 -53l347 0 0 -50 -347 0 0 50zm0 -103l347 0 0 -69 -347 0 0 69zm-447 -81c-58,0 -98,-69 -56,-85 13,-5 28,2 34,16 10,28 53,15 46,-15 -10,-36 -53,2 -62,-36l-38 -148c-36,-11 -53,-42 -40,-76l23 -59c12,-28 43,-42 73,-31 32,11 64,25 97,34l547 155 127 0c15,0 27,12 27,27l0 177c22,0 69,-8 69,27l0 320 42 0c19,0 32,19 25,36l-183 461c32,4 66,11 103,21 33,9 20,60 -14,51 -225,-59 -360,-2 -366,0 -150,42 -292,34 -395,0 -221,-59 -360,-2 -362,-1 -1,0 -2,1 -3,1 -81,21 -151,28 -210,28 -115,0 -183,-28 -188,-30 -32,-14 -11,-62 21,-49 1,1 42,17 114,24l-221 -726c-4,-13 2,-26 13,-31l0 -223c0,-15 12,-27 26,-27l157 0c10,0 19,6 24,14l121 233c6,0 12,3 16,8l188 205 0 -175c0,-14 12,-26 26,-26l214 0c15,0 27,12 27,26l0 180 65 0 0 -180c0,-14 12,-26 26,-26l215 0c14,0 26,12 26,26l0 180 40 0 0 -320c0,-35 47,-27 70,-27l0 -39 -90 -12c-15,-1 -112,-71 -132,-80l-225 -68 -34 -10 24 95c96,9 91,155 -7,155zm9 -297l25 -62 -72 -26c-2,0 -5,0 -5,2 -3,7 -25,59 -23,63l75 23zm378 154l77 10 0 -85c0,-6 2,-11 5,-16l-384 -108 -25 61c24,7 200,58 207,63l120 75zm-903 1317c-115,0 -183,-28 -188,-30 -32,-14 -11,-62 21,-49 2,1 142,58 361,0 19,-8 168,-62 395,-1 2,1 3,1 4,2 1,0 142,57 361,-1 19,-8 168,-62 396,0 33,8 20,60 -14,51 -227,-60 -359,-2 -366,0 -157,40 -285,37 -396,0 -220,-59 -360,-2 -361,-1 -1,0 -2,1 -4,1 -80,21 -150,28 -209,28zm0 -136c-115,0 -183,-28 -188,-30 -32,-14 -11,-62 21,-48 2,0 142,57 361,-1 19,-8 168,-62 395,0 2,0 3,0 4,1 1,1 142,58 361,-1 19,-7 168,-61 396,0 33,9 20,60 -14,51 -225,-59 -360,-2 -366,0 -150,43 -292,35 -395,0 -221,-59 -360,-1 -362,-1 -1,1 -2,1 -3,2 -81,20 -151,27 -210,27zm324 -733l161 1 0 -153 -161 0 0 152zm709 -346l207 0 0 -151 -207 0 0 151zm-216 347l0 -153 -161 0 0 153 161 0zm-923 -289l-59 0c-34,0 -34,-53 0,-53l59 0c35,0 35,53 0,53zm-102 70l215 0 -101 -193 -114 0 0 193z"/>
 </g>
</svg>
