<?xml version="1.0" encoding="UTF-8"?>
<!DOCTYPE svg PUBLIC "-//W3C//DTD SVG 1.1//EN" "http://www.w3.org/Graphics/SVG/1.1/DTD/svg11.dtd">
<!-- Creator: CorelDRAW -->
<svg xmlns="http://www.w3.org/2000/svg" xml:space="preserve" width="512px" height="512px" version="1.1" style="shape-rendering:geometricPrecision; text-rendering:geometricPrecision; image-rendering:optimizeQuality; fill-rule:evenodd; clip-rule:evenodd"
viewBox="0 0 512 512"
 xmlns:xlink="http://www.w3.org/1999/xlink">
 <defs>
  <style type="text/css">
   <![CDATA[
    .fil0 {fill:black}
   ]]>
  </style>
 </defs>
 <g id="Layer_x0020_1">
  <metadata id="CorelCorpID_0Corel-Layer"/>
  <g id="_597578584">
   <g>
    <g>
     <path class="fil0" d="M504 310l-106 0c-4,0 -8,-3 -8,-7l0 -27c0,-4 4,-7 8,-7l106 0c4,0 8,3 8,7l0 27c0,4 -4,7 -8,7zm-99 -15l92 0 0 -12 -92 0 0 12z"/>
    </g>
    <g>
     <path class="fil0" d="M258 399l-155 0c-5,0 -8,-4 -8,-8 0,-4 3,-7 8,-7l155 0c4,0 8,3 8,7 0,4 -4,8 -8,8zm95 -1c-3,0 -7,-2 -7,-6 -1,-4 2,-8 6,-8 7,-2 13,-9 13,-17l0 -163 -58 0c-4,0 -7,-2 -7,-5l-27 -105c-1,-6 -5,-13 -12,-13l-150 0c-6,0 -12,5 -12,11l0 105c0,4 -3,7 -7,7l-24 0c-9,0 -16,8 -16,16l0 125c0,4 -4,7 -8,7 -4,0 -7,-3 -7,-7l0 -125c0,-17 13,-30 30,-30l17 0 0 -98c0,-14 12,-26 27,-26l150 0c12,0 22,9 26,24l25 99 60 0c5,0 8,3 8,8l0 170c0,15 -11,29 -26,31 0,0 -1,0 -1,0z"/>
    </g>
    <g>
     <path class="fil0" d="M273 317l-91 0c-4,0 -7,-4 -7,-8l0 -79c0,-4 3,-8 7,-8 5,0 8,4 8,8l0 72 76 0 0 -72c0,-4 3,-8 7,-8 4,0 8,4 8,8l0 79c-1,4 -5,8 -8,8z"/>
    </g>
    <g>
     <path class="fil0" d="M307 237l-34 0c-5,0 -8,-3 -8,-7 0,-4 3,-8 8,-8l27 0 0 -25c0,-5 3,-8 7,-8 4,0 8,3 8,8l0 33c-1,4 -4,7 -8,7zm-125 0l-78 0c-10,0 -19,-8 -19,-19l0 -21c0,-4 4,-7 8,-7 4,0 6,3 6,7l0 21c0,2 2,4 5,4l78 0c5,0 8,4 8,8 0,4 -3,7 -8,7z"/>
    </g>
    <g>
     <path class="fil0" d="M398 339l-25 0c-4,0 -8,-3 -8,-7l0 -212c0,-4 4,-8 8,-8l25 0c4,0 7,4 7,8l0 212c0,4 -3,7 -7,7zm-18 -14l10 0 0 -198 -10 0 0 198z"/>
    </g>
    <g>
     <path class="fil0" d="M228 317l-46 0c-4,0 -7,-4 -7,-8l0 -45c0,-4 3,-7 7,-7l46 0c4,0 7,3 7,7l0 45c0,4 -4,8 -7,8zm-38 -15l31 0 0 -30 -31 0 0 30z"/>
    </g>
    <g>
     <path class="fil0" d="M231 234c-1,0 -2,0 -4,-1 -3,-2 -4,-7 -1,-10l24 -35c2,-3 6,-4 10,-1 3,2 4,6 1,10l-24 34c-1,3 -3,3 -6,3z"/>
    </g>
    <g>
     <path class="fil0" d="M273 237c-2,0 -3,0 -5,-1l-29 -20c-3,-2 -4,-7 -1,-10 2,-3 6,-4 10,-2l29 20c3,2 4,7 1,10 -1,2 -3,3 -5,3z"/>
    </g>
    <g>
     <path class="fil0" d="M305 446c-30,0 -54,-25 -54,-55 0,-30 24,-55 54,-55 31,0 55,25 55,55 0,30 -24,55 -55,55zm0 -95c-22,0 -40,18 -40,40 0,22 18,40 40,40 23,0 41,-17 41,-40 0,-22 -19,-40 -41,-40z"/>
    </g>
    <g>
     <path class="fil0" d="M55 446c-30,0 -55,-25 -55,-55 0,-30 25,-55 55,-55 30,0 55,25 55,55 0,30 -25,55 -55,55zm0 -95c-22,0 -40,18 -40,40 0,22 17,40 40,40 22,0 40,-17 40,-40 0,-22 -18,-40 -40,-40z"/>
    </g>
    <g>
     <path class="fil0" d="M132 293l-59 0c-4,0 -7,-3 -7,-7l0 -22c0,-4 3,-7 7,-7l59 0c4,0 7,3 7,7l0 22c0,4 -4,7 -7,7zm-52 -15l44 0 0 -6 -44 0 0 6z"/>
    </g>
    <g>
     <path class="fil0" d="M325 298c-13,0 -23,-10 -23,-23 0,-13 10,-23 23,-23 13,0 23,10 23,23 0,13 -10,23 -23,23zm0 -32c-5,0 -9,4 -9,9 0,5 4,8 9,8 5,0 9,-4 9,-8 0,-5 -4,-9 -9,-9z"/>
    </g>
    <g>
     <path class="fil0" d="M236 399l-54 0c-4,0 -7,-4 -7,-8l0 -82c0,-4 3,-7 7,-7l54 0c5,0 8,3 8,7l0 82c0,4 -4,8 -8,8zm-46 -15l39 0 0 -67 -39 0 0 67z"/>
    </g>
    <g>
     <path class="fil0" d="M505 283l-71 0c-4,0 -7,-3 -7,-7l0 -70c0,-4 3,-7 7,-7l71 0c4,0 7,3 7,7l0 70c0,4 -4,7 -7,7zm-64 -14l56 0 0 -56 -56 0 0 56z"/>
    </g>
    <g>
     <path class="fil0" d="M505 213l-71 0c-4,0 -7,-3 -7,-7l0 -71c0,-4 3,-7 7,-7l71 0c4,0 7,3 7,7l0 71c0,4 -4,7 -7,7zm-64 -14l56 0 0 -56 -56 0 0 56z"/>
    </g>
    <g>
     <path class="fil0" d="M55 423c-18,0 -32,-14 -32,-32 0,-18 14,-32 32,-32 18,0 32,15 32,32 0,18 -14,32 -32,32zm0 -49c-10,0 -18,8 -18,17 0,10 8,18 18,18 9,0 17,-8 17,-18 0,-9 -8,-17 -17,-17z"/>
    </g>
    <g>
     <path class="fil0" d="M305 423c-17,0 -32,-14 -32,-32 0,-18 15,-32 32,-32 18,0 32,14 32,32 0,18 -14,32 -32,32zm0 -49c-9,0 -17,8 -17,17 0,10 8,18 17,18 10,0 18,-8 18,-18 0,-9 -8,-17 -18,-17z"/>
    </g>
   </g>
  </g>
 </g>
</svg>
