<?xml version="1.0" encoding="utf-8"?><!-- Uploaded to: SVG Repo, www.svgrepo.com, Generator: SVG Repo Mixer Tools -->
<svg width="800px" height="800px" viewBox="0 0 400 400" fill="none" xmlns="http://www.w3.org/2000/svg">
<path d="M245.472 72.65C236.949 65.8608 225.63 62.1958 213.813 62.0833C164.163 61.6107 158.991 138.927 221.621 138.927C261.466 138.927 261.579 93.4124 234.473 80.8199" stroke="#000000" stroke-opacity="0.9" stroke-width="16" stroke-linecap="round" stroke-linejoin="round"/>
<path d="M189.772 166.147C183.637 181.23 180.966 196.535 178.277 212.37C173.046 243.141 167.3 268.865 165.886 273.628C164.472 278.391 150.01 287.55 124.428 320.293C118.593 327.763 111.577 345.438 119.645 329.617" stroke="#000000" stroke-opacity="0.9" stroke-width="16" stroke-linecap="round" stroke-linejoin="round"/>
<path d="M181.443 220.784C191 231.857 216.175 233.454 224.426 243.979C235.09 257.582 223.921 312.304 223.921 332.433" stroke="#000000" stroke-opacity="0.9" stroke-width="16" stroke-linecap="round" stroke-linejoin="round"/>
<path d="M189.983 165.878C210.588 180.322 252.133 192.873 277.964 187.797" stroke="#000000" stroke-opacity="0.9" stroke-width="16" stroke-linecap="round" stroke-linejoin="round"/>
<path d="M284.962 166.147C280.886 222.631 264.734 277.707 264.734 333.62" stroke="#000000" stroke-opacity="0.9" stroke-width="16" stroke-linecap="round" stroke-linejoin="round"/>
<path d="M143.092 166.033C201.041 114.541 185.022 268.881 137.456 248.634C110.809 237.292 129.973 186.551 148.73 177.233" stroke="#000000" stroke-opacity="0.9" stroke-width="16" stroke-linecap="round" stroke-linejoin="round"/>
</svg>