<?xml version="1.0" encoding="iso-8859-1"?>
<!-- Generator: Adobe Illustrator 16.0.0, SVG Export Plug-In . SVG Version: 6.00 Build 0)  -->
<!DOCTYPE svg PUBLIC "-//W3C//DTD SVG 1.1//EN" "http://www.w3.org/Graphics/SVG/1.1/DTD/svg11.dtd">
<svg version="1.1" xmlns="http://www.w3.org/2000/svg" xmlns:xlink="http://www.w3.org/1999/xlink" x="0px" y="0px" width="512px"
	 height="512px" viewBox="0 0 512 512" style="enable-background:new 0 0 512 512;" xml:space="preserve">
<g id="_x34_53_x2C__air__x2C__plane_x2C__airplane_x2C__fly">
	<g id="XMLID_8360_">
		<path id="XMLID_8361_" d="M438.369,273.531c-0.561-13.828-8.25-29.977-28.07-29.977c-2.027,0-4.163,0.174-6.347,0.516
			l-265.034,41.912c-0.741,0.118-1.499,0.054-2.21-0.185l-60.325-20.24l46.847,70.271l115.647-8.833l37.167-36.248
			c0.869-0.848,2.038-1.323,3.254-1.323h65.237c2.05,0,3.858,1.34,4.456,3.301c0.599,1.961-0.155,4.082-1.857,5.227l-38.248,25.714
			l93.964-7.687C427.22,313.999,439.164,293.126,438.369,273.531z M186.103,312.724h-18.639v-18.64h18.639V312.724z
			 M223.381,303.403h-18.639v-18.639h18.639V303.403z M381.814,284.765h-18.64v-18.64h18.64V284.765z M391.134,256.806h18.64v18.639
			h-18.64V256.806z"/>
		<path id="XMLID_8367_" d="M281.193,298.743l-36.995,36.081l-46.981,47.796h24.459l66.778-56.413
			c0.129-0.11,0.266-0.214,0.405-0.309l40.393-27.155H281.193z"/>
		<path id="XMLID_8368_" d="M74.268,205.548h55.917c2.574,0,4.66-2.087,4.66-4.66s-2.086-4.659-4.66-4.659H74.268
			c-2.573,0-4.66,2.086-4.66,4.659S71.695,205.548,74.268,205.548z"/>
		<path id="XMLID_8369_" d="M111.546,224.187c-2.573,0-4.66,2.087-4.66,4.66s2.086,4.66,4.66,4.66h83.876
			c2.573,0,4.66-2.087,4.66-4.66s-2.086-4.66-4.66-4.66H111.546z"/>
		<path id="XMLID_8370_" d="M130.186,373.301H74.268c-2.573,0-4.66,2.086-4.66,4.659c0,2.574,2.086,4.66,4.66,4.66h55.917
			c2.574,0,4.66-2.086,4.66-4.66C134.846,375.387,132.759,373.301,130.186,373.301z"/>
		<path id="XMLID_8371_" d="M120.907,157.339c2.573,0,4.66-2.086,4.66-4.659c0-12.848,10.452-23.3,23.299-23.3
			c0.442,0,0.881,0.016,1.318,0.04c2.07,0.12,3.971-1.149,4.659-3.106c3.274-9.314,12.108-15.572,21.982-15.572
			c3.727,0,7.294,0.859,10.603,2.555c1.13,0.58,2.447,0.673,3.648,0.258c1.2-0.415,2.179-1.302,2.71-2.455
			c5.314-11.54,16.948-18.997,29.637-18.997c17.986,0,32.62,14.633,32.62,32.619c0,0.471-0.018,0.938-0.039,1.404
			c-0.068,1.549,0.639,3.031,1.885,3.953c1.248,0.922,2.873,1.161,4.331,0.645c2.505-0.891,5.13-1.343,7.802-1.343
			c12.847,0,23.299,10.452,23.299,23.3c0,12.847-10.452,23.299-23.299,23.299c-2.574,0-4.66,2.086-4.66,4.659s2.086,4.66,4.66,4.66
			c17.985,0,32.618-14.633,32.618-32.618c0-17.986-14.633-32.619-32.618-32.619c-0.248,0-0.492,0.022-0.738,0.027
			c5.676-10.426,16.694-17.056,28.655-17.056c17.985,0,32.618,14.633,32.618,32.619c0,0.477-0.018,0.949-0.036,1.42
			c-0.063,1.547,0.646,3.023,1.891,3.941c1.248,0.92,2.87,1.159,4.325,0.64c2.507-0.89,5.131-1.342,7.8-1.342
			c12.847,0,23.299,10.452,23.299,23.299c0,12.848-10.452,23.299-23.299,23.299c-2.574,0-4.66,2.087-4.66,4.66s2.086,4.66,4.66,4.66
			c17.985,0,32.618-14.633,32.618-32.619c0-17.985-14.633-32.618-32.618-32.618c-1.642,0-3.27,0.122-4.878,0.364
			c-2.157-21.115-20.045-37.643-41.72-37.643c-13.916,0-26.838,6.976-34.579,18.231c-5.416-16.895-21.267-29.162-39.937-29.162
			c-14.793,0-28.469,7.881-35.984,20.408c-3.397-1.176-6.951-1.769-10.614-1.769c-12.686,0-24.147,7.38-29.489,18.675
			c-17.279,0.801-31.088,15.109-31.088,32.583C116.248,155.253,118.334,157.339,120.907,157.339z"/>
		<path id="XMLID_8372_" d="M409.773,391.939c-1.642,0-3.271,0.122-4.879,0.365c-2.156-21.115-20.044-37.644-41.72-37.644
			c-14.793,0-28.469,7.88-35.983,20.408c-3.396-1.176-6.951-1.769-10.614-1.769c-2.573,0-4.66,2.086-4.66,4.659
			c0,2.574,2.087,4.66,4.66,4.66c3.727,0,7.295,0.86,10.604,2.556c1.131,0.579,2.447,0.672,3.648,0.257
			c1.199-0.415,2.179-1.302,2.71-2.455c5.314-11.54,16.947-18.997,29.636-18.997c17.986,0,32.619,14.633,32.619,32.619
			c0,0.477-0.018,0.949-0.037,1.421c-0.063,1.546,0.646,3.022,1.893,3.941c1.246,0.918,2.869,1.159,4.325,0.639
			c2.504-0.89,5.128-1.342,7.799-1.342c12.847,0,23.299,10.452,23.299,23.3c0,2.573,2.086,4.659,4.659,4.659
			c2.574,0,4.66-2.086,4.66-4.659C442.392,406.572,427.759,391.939,409.773,391.939z"/>
	</g>
</g>
<g id="Layer_1">
</g>
</svg>
